<svg xmlns="http://www.w3.org/2000/svg" viewBox="0 0 363 289"><g fill-rule="evenodd"><path fill="#c8961e" d="M30 254c0 2-8 2 0 6s-5 2 28 8 33 8 83 11 36 3 83-1 54-7 75-13 7-7-4-8 10 4-34 5-46 6-113-1-74-20-109-22-6 10-8 14Zm208-27c10 0 31 4 35 1s-12-9-21-11-6 1-9 4 0 5 0 7Zm1-10c2 1 5 3 6 2s-1-3-2-5Zm92-4c-1 2-4 3-2 8s6 8 9 8 4-3 2-8-6-6-8-8Zm-301 9c4 3-18 1 15 9s35 12 94 18 55 4 102 3 58-1 53-5-40-9-69-9-10 6-28 9-13 2-31 0-18-1-30-8 4-9-11-14-28-2-39-4 16 1 3-3-28-9-45-11-8 0-11 4 1 6 1 9Zm97 19h5s-3 1-4 1Zm177-37c-1 2-5 6-4 8s4-3 7 0-1 7 2 10 5-2 9 1 2 10 4 9 9-4 4-12-14-11-20-16ZM35 187c0 2-3 4 0 7s-8-1 11 4 33 9 52 12 11 4 12-3-5-16-8-21 0 5-1 5 11-1-4-6-28-10-46-11-9 5-13 7Zm65 5v5s-1-3-1-4Zm-1-26c-11 0-33-2-37 0s12 6 23 6 10-4 14-5Zm-12 2c1-1 3-3 4-3s-1 3-2 4Zm160-9c1 3 1 9 2 9s0-6 0-8Zm96-2c0 2-3 3-1 7s7 9 8 7-4-10-6-14Zm-21-8c1 1 6 2 2 4s-14 1-16 3 7 0 8 2-6 3-5 6 10 2 8 4-12 0-14 2 8 2 8 3-9 1-8 2 10 0 11 1-4-3-8 1-13 1-6 11 17 28 28 21 12-27 10-45-11-10-16-15Zm-2 19h5s-3 1-4 1Zm-135-24c-1-1-1-5-4-2s-1 9-5 13-4 2-8 0-2-7-4-7-8 2-3 7 12 14 19 11 3-14 4-20Zm141-12c0 2-1 6 0 7s-1-7 4-3 10 15 13 17-4-7-3-11 9-1 5-3-14-3-18-5 3-1 4-2Zm-307-7c0 5-17 12 1 18s40 3 59 1 8-6 5-9-19 0-16-1 24 0 26-1-17 0-19-1 14-1 12-3 2-3-18-5-34 0-49 0Zm13-74c-4 19-25 44-12 63s38 2 55 1 7-2 3-3-14 0-15-1 9 0 10-2 0-3-5-5-11 0-11-1 11 0 11-1-9-1-10-2 9 2 8-2-10-7-11-11 9 2 9-2-9-6-10-10 11-1 8-2-18 1-17 0 21-1 22-3-17-2-20-4 10-1 9-3-12-2-13-4 10-2 10-3-13 0-11-1 16-1 17-2-9-1-13-2Zm23 32h5s-3 1-4 1Zm-7 0h6s-4 1-5 1Zm3-14h5s-3 1-4 1Zm-7 0h6s-4 1-5 1Zm-8-27c9 0 18 6 31 1s20-10 13-16-23-7-36-3-6 10-8 15Zm5-2h10s-6 1-9 1Zm26-9h5s-3 1-4 1Zm5-1 4 2Zm-2-3h6s-4 1-5 1Z"/><path fill="#d4a017" d="m234 224 8-4s-6 2-8 3Zm68-11c-2 1-6 2-6 2s4-1 6-1Zm-51-42c0 5-5 10 0 18s10 7 15 8-1-5 2-4 4 7 9 9 6-3 8-2-4 3-2 6 3 4 8 4 8-2 8-3-8-1-8-2 8-1 8-2-4 2-7 0 2-4-2-8-9-3-11-5 10 2 3-3-19-10-27-14Zm-150 0c0 1-2 4-1 4s2-2 3-3Zm78-30c-1 3 1 8-3 11s-11 0-10 0 9 3 13 0 0-6 0-9Zm-91-11c3 2 10 4 11 6s-7 0-8 1 5 4 4 4-5-5-9-4-10 3-4 6 14 8 23 4 11-12 7-17-15 0-21 0Zm169-22c1 1 6-2 3 3s-10 10-12 15 7 0 7 2-7 2-8 4 3-4 5 2-2 12 0 17 5 0 5 1-4-2-5 1-12-2 2 8 28 18 43 25 4-1 7-3 5-3 3-5-12-1-11-3 13-1 15-3-8-1-8-2 5 2 7-1 2-5 0-8-10 0-8-1 12 1 13-1-12-2-10-6 17-5 18-6-11 2-13 1 23 8 8-4-40-26-57-37Zm-15-37c1 2 1 6 4 8s4-4 7 0-19-3 3 14 49 34 69 42 2-11-1-16-8 3-10 1 24 8 3-7-52-29-74-42Zm78 52h5s-3 1-4 1ZM49 58c8 3 23 6 26 9s-17-1-17 1 10 0 16 4 2 5 3 9 4 3-1 5-14-1-17 0 7 0 7 2-10 4-6 6 14-2 19 0-5 4-4 6 9 0 9 2-10 2-10 6-11 6 10 8 44 1 60-1-6 1-5-6 7-11 7-18-6-1-7-4 5-4 5-6-6 0-6-1 6 2 5-2-7-8-9-13 24 1 4-3-48-9-71-11-8 2-7 4 11 2 10 3-9 0-13 0Zm68 53-2 4ZM67 88h9s-6 1-8 1Zm0-24c0-2-2-4 1-5s9 0 9 2-6 3-8 4Zm7-7h6s-4 1-5 1Zm-5-20c3 1 11 1 11 2s-8-1-10 1-14 1 5 4 42 6 60 7-4-3 1-5 13 0 15-3 11-2-8-7-37-7-55-10-6-1-6 0 8 0 6 3-8 6-11 8Z"/><path fill="#7a5a0a" d="M327 222c-1 4-7 6-5 12s8 9 12 8 4-6 3-12-6-6-8-8Zm-80-53c1 5 1 18 2 18s0-13 0-18Zm96-3c-4 13-11 27-12 43s3 19 8 10 9-24 10-40-4-8-6-12ZM24 155c-2 24-4 49-5 79s0 13 2 21 1 10 6 5-9-20 11-22 17 7 57 14 15 8 75 9 86-6 125-5-3 9 5 9 15-4 22-9 3-3 1-8 15 8-8-8-41-39-70-44-7 15-25 28-18 10-35 15-7 3-21 0-9 2-25-9-20-23-27-28 26 14 4 12-52-11-77-17-9 4-7-3-8-19 14-21 42 12 59 13 9-4-4-10-42-5-41-9 30 0 43-3 23-4 0-7-55-3-78-4Zm202 73c5-4 1-16 17-15s41 14 37 19-36-1-52-2Zm-197-6c1-3-1-6 3-11s-16-9 12-5 44 6 81 18 11 18 41 22 22-8 59-9 43 1 64 4 44 3 6 6-73 6-133 5-28-1-68-9-46-12-65-17Zm216-73 3 9s-1-6-2-9Zm-57 0c-2 5 0 14-8 18s-16-5-17-4 7 7 15 6 7-3 10-8 0-7 0-10Zm158-8c-1 5-4 9-2 15s6 10 7 6-1-13-2-19Z"/><path fill="#e8c340" d="M291 184c-1 2-13-3-2 7s27 21 39 27 11 2 1-8-24-18-34-25Zm-41-30c1 2 2 7 2 7s-1-5-1-7Zm-72-7c-2 1-7 4-8 5s4-1 6-1Zm68-2c1 2 2 7 3 7s-1-5-1-7Zm64-14c0 2-3 4 1 7s9 0 13 3-5 1 0 7 15 12 18 12 1-5-8-13-15-11-22-15Zm-298 7c2 1 6 4 6 4s-5-3-5-5 3 3 5-1-27-10 1-13 63 5 92 4 5-7 4-7-2 5-7 6-10 0-11-2 8-2 9-4 19-1-7-2-55-4-79-2 1 5-1 7-5 1-7 1Zm79-17h6s-3 1-5 1Zm47-56c3 2 9 3 9 6s-7 2-8 4 6 1 6 3-6 1-6 2 6 0 6 1-6 1-5 3 5-3 7 4-3 13 0 18 5-3 10-2 3 8 8 6 3-8 8-11 6-3 9 0-4 9 2 11 12-8 18-6-6 9 1 12 13-6 24-1 7 13 12 18 2-6 4-3 4 11 4 13-6 4-4-6 11-16 11-26-9-3-10-6 25 5 7-5-35-16-68-27-30-6-43-9Zm105 60v5s-1-3-1-4Zm-79-30c0 2 1 8 1 8s-1-5-2-7ZM30 51c-3 1-4-15-9 4s-8 43-9 60 2 16 7-2 7-40 10-57Zm110 0c34 12 80 33 113 41s-2-10-4-13 0 6-3 4-2-6-6-10-8 0-9-2 9-1 5-5 6 0-18-8-42-15-63-20-8 2-7 3 11-2 9 1-11 6-15 9ZM27 42c2 0 5-1 7 1s-16 3-2 6 34 4 50 3 7-5 5-6-8 4-12 3 11-2-1-5-31 2-40-4-9-13 10-17 35 4 52 3 21-2 5-7-37-7-57-8-5-3-10 4-6 14-8 20Z"/><path fill="#e8e8e8" d="M132 144h5Zm43 0c-1 0-2-2-5-1s-6 4-4 5 6-1 9-1Zm-33 2c5 4 12 9 16 14s-1 4-4 3-1-6-7-6-13 5-13 7 8-2 14-1 6 2 5 6-10 5-8 7 12-6 15 0-7 17-5 19 9-8 11-13-3-3-3-5 0-9 4-3 5 21 9 22 3-10 4-18 2-6-2-7-4 8-10 4-10-7-11-17 6-10 6-15-1-4-7-2-8 7-12 8-1-2-1-3Zm15 24c1-1 2-3 3-2s0 3 0 4Zm-37-33c-2 3-3 2-6 10s-4 13-3 18 5 6 7-1 1-15 1-21Zm115 9c-2-3-6-14-6-10s5 10 5 22 0 7-4 18-4 11-9 18-5 2-7 5 4 4 1 6-7-1-11 1 0 3-1 4-1-4-3-2 0 6-2 7-1-5-3-5 2 3-5 4-13-1-19 0 9 6-2 3-23-7-33-12-2-4-1-5 5 2 5 2-2 2-6-1-6-5-8-8 2-3 2-2 0 4-3 4-6-2-7-3 3 1 5-1 2 0 1-6-1-9-5-14-6-9-7-3-1 11 3 22 6 11 11 15 3-3 5-3 3 1 2 3-8-2-6 3 8 9 14 13 5-2 6-1-7 1-1 4 12 6 22 7 6-4 12-4 5 3 7 3-2-2-1-4 1-2 4-2 1 4 6 3 8-2 11-5-2-2 0-4 4 1 8-2 2-6 4-8-2 6 2 3 5-3 10-14 5-13 7-22 2-7 0-8-5 5-5 3 4-2 5-8-1-8-2-11Zm-71 82c2 0 5-1 5-1s-3 1-4 2Zm15-6c-1 2-2 4-4 5s-5 0-4-2 4-3 6-4Zm-19-3c-1 1-1 3-3 4s-6-1-5-2 5-2 7-3Zm36-2c1 1 3 0 2 2s-5 4-6 4 2-3 3-4Zm17-6c-1 1-4 3-5 3s2-3 3-4Zm-69-1c-1 1-1 3-3 4s-5 0-5-2 4-2 6-3Zm80-10c-2 0-5 1-5 1s3-1 4-2Zm-99 0c1 0 5 0 5 1s-3 1-4 1Zm103-6c1-1 2-3 3-2s-1 3-1 4ZM0 118v20s1-14 1-20Zm193-1c-2 3-6 5-8 10s2 5 1 6-2-3-3-2-2 1-2 4-3 1 1 5 14 0 14 10-12 14-15 22 5 2 6 4-5-1-4 3q1.5 6 6 9c3 2 3 2 3-1s-3-6-3-10-3-4 3-3 15 8 16 7-8-5-12-11-1-6 0-8-5 2 2 3 19 3 20 0-17-4-18-10 13-8 15-11-6 0-9 1 3 5 0 4-11 1-10-6 15-14 13-16-15 12-20 10 3-12 4-17Zm-2 43c1-1 2-3 3-2s-1 3-1 4Zm-16-50c-2 7-1 19-6 22s-5-9-9-12-4 0-3 3 5 2 5 6 2 6-4 6-14-7-16-5 5 9 9 11-2-4 3-4 9 4 13 3-1-4 1-5 3 1 4 2-3 1-2 2 3 1 6 0 3 3 3-4-2-13-3-18Zm-8 23c-2 1-5 3-6 2s1-3 2-5Z"/><path fill="#f0d060" d="M154 222c2 0 5 0 5-1s-3-1-4-1Zm130-39c2 1 5 3 5 3s-3-2-4-3Zm-33-21c0 2-9 0 0 7s22 12 31 15 8 0 0-6-18-9-25-13ZM13 116c0 2-3 5-1 7q3 3 6 0c2-2 0-5 0-7Zm283-23c3 2 9 7 9 7s-6-5-8-7Zm-14-9c2 2 6 7 7 8s-2-4-3-6ZM102 51c28 7 45 7 94 24s34 13 69 31 39 27 46 29 5-5-23-22-24-18-69-36-46-16-80-24-23-1-33-2Zm-79-2c3-2 10-5 10-6s-7 2-10 3Zm87-27c3 2-23-2 9 8s52 11 99 27 43 22 58 27 13 2-9-10-27-16-64-31-34-12-61-19-21-2-30-3Z"/></g></svg>