<svg xmlns="http://www.w3.org/2000/svg" viewBox="0 0 512 512"><g fill="#2d6a4f" fill-rule="evenodd"><path d="M280.9 364.6c-6.5-5.3-7.9 9.3-14.3 14.4s-7.9-6.3-8.5 3.8 1.6 15 6.4 32.1c4.7 17 5.2 26.5 10.5 28.7 5.3 2.3.1-17.3 8.5-20.7s19.7 15.4 21.5 8.5-8.5-14.7-15.2-33.4-2.4-28.1-8.9-33.4m-51.5-.9c-7 5.4-2.5 15.2-9.7 34.3-7.3 19-17.9 26.8-16.1 33.8s13.6-12.2 22.4-8.9 3.4 23.3 8.9 20.7 5.9-12.8 10.5-30c4.7-17.1 6.2-21.6 6-31.3s-.7 1.9-6.8-3.3c-6.2-5.2-8.2-20.6-15.2-15.3"/><path d="M253 212.9c-5.6.7 8.7-11.5-10.1 6.3s-47.7 47.4-65.1 65.1c-17.3 17.8-2.9 2.3-4.2 5.9s-1.5 4.7-.8 8.5-14.8-12.4 3.3 6.7 50.5 51.5 69.3 69.8 2.9 2.4 6 3.3c3 1 2.9 1.2 6.3.5 3.4-.8-12.2 15 7.2-3.4s51.7-49.9 70.1-70.2c18.4-20.2 3.3-6.3 3.4-10.9s15.3 11.9-3-7.7c-18.2-19.5-49.5-52-70.1-70.5s-6.7-4.1-12.3-3.4m4.7 114.1c-5.5-5.4 1.4-1.9-.9 0s-2.3 1.9-8 7.6-11.1 11.2-14.8 15.2-4.8-4.1 0 .8c4.9 5 13.8 14.3 19.5 19.1 5.7 4.7 2 .3 3.3 0 1.4-.4-3.3 4 2.2-1.3s20.1-9.5 19.8-19.9-15.6-16.1-21.1-21.5m5.9-7.2c.1 10.8 10.8 21.8 21.6 22 10.7.2 16.1-15.7 21.5-21.2s5.3 4.7 0-.8-15.6-15.8-21.1-21.1 4.6-5.3-.9 0-21.2 10.3-21.1 21.1m-57.5 2.5c5.2 5.5 9.7 21.7 20.7 21.2s22.8-12.3 23.7-23.3c1-11-14.5-15.3-19.9-20.7s4.5-6.3-1.6-.8c-6.2 5.5-17.2 16.9-22.9 22.8s-5.1-4.7 0 .8m85.8-30.8c-4.1 4.7-4.4-3.8.9 1.7 5.2 5.5 15 15.2 20.2 20.3 5.3 5-2.9 3.6.9 0s10.6-10.4 14.4-14.4.6-.5.8-1.7.2-1.8 0-2.9c-.2-1.2 3.9 3.3-.8-1.7s-13.5-14-18.2-18.6c-4.8-4.7 3.7-4.4-.9 0-4.5 4.3-13.2 12.5-17.3 17.3M181.6 297c.1 1.3-3.5-2.9.9 1.7 4.3 4.5 6.4 18.1 16.5 16.5s22.5-12.6 23.6-23.3-8.9-19.8-19-19.4-16.1 15-21.5 21.1c-5.5 6.1-.6 2.1-.5 3.4m54.1-5.5c-3.6 7.2 1.7 2.3 6.8 7.6s9.8 10 13.5 13.5-4.3 5.6 1.3.4 20.9-10.5 21.1-21.1c.2-10.5-14.9-15.7-20.3-21.1s4.3-5.6-1.3-.4-17.5 13.9-21.1 21.1m28.3-28.3c-4.4 4.5-5.1-4.6 0 .8 5.2 5.4 15.3 15.6 20.7 20.7 5.4 5.2-3.6 4.3.9 0s12.7-12.4 16.9-16.9.5 0 0-.8 3 2.7-2.1-2.5c-5.2-5.3-9.5-18.3-18.6-18.6s-13.3 12.7-17.8 17.3m-54.1 2.5c-.7 10.1 13.8 14.3 18.6 19 4.9 4.8-3.5 4 .9 0 4.3-4 11.3-10.8 16.5-16s3.1-3.3 4.2-4.7c1-1.3 4.6 4 0-.8-4.7-4.9-8.6-19.2-18.6-18.6s-20.8 11.1-21.6 21.1m44.4-43.5c-1.3.2 2.3-3-1.7.8s-10.8 10.6-14.3 14.4c-3.6 3.8-4.7-4 0 .9 4.6 4.8 12 15.6 18.5 18.5s3.7-3 7.7-6.7c3.9-3.7 5.4-5.4 8-8 2.5-2.7 1.6-1.7 2.1-2.6.5-.8 4 3.4 0-.8s-11.8-12-16.1-16.1c-4.2-4.1.2-.3-.8-.4q-1.6-.2-3.4 0"/></g><path fill="#d4a017" d="M170.2 252.5c-.3-.4.3 1.3-.3 3.6s.2 1.9-1.6 4.1-1.6 2.1-4.4 3.3-5.1.3-5 .8 2.6-.1 5.2.8c2.7 1 2 .7 3.6 2.5s1.2 1.1 1.9 3.6c.8 2.5.3 4.6.6 4.7.3 0-.2-2 .5-4.4.8-2.5.3-2 2-3.9s1-1.4 3.5-2.5c2.6-1 5.2-.4 5-1.1-.3-.6-3.1.1-5.8-1.1-2.7-1.1-1.9-1.1-3.3-2.7s-.8-.4-1.4-2.7-.3-4.6-.5-5m81.8-55.8c-1.3.2-1 .1-2 .8s-.7.5-1.3 1.4-.6.3-.9 1.6c-.2 1.3-.1 1.5 0 2.8.2 1.2-.1.3.6 1.3s1 1.2 1.9 2c.9.7-.2.3 1.1.5s1.7.4 3.3 0c1.7-.4 1.3-.6 2.2-1.4s.4-.3.8-1.1c.4-.7.4-.2.6-1.3s.2-1.2 0-2.5 0-.9-.8-1.9c-.9-1.1-1-1-2-1.7s-.3-.4-1.3-.5c-1.1-.2-1-.3-2.2 0m-61.9-21.8c-2.2 1.1-2.8 1.5-3 4.2-.1 2.7 3.8-.7 2.6 4.6-1.3 5.4.7 8.5-6.8 13.1-7.5 4.7-16.8-2.5-18.2 2.6s10.5 4.8 13.6 14.3-7.2 14.7-3.4 17.4 5.9-8.5 16-8.5 13.5 11.3 17.8 8.5-6.4-8.3-3.4-17.8 14.8-9.1 13.5-13.9-10.3 2.6-17.7-2.1c-7.5-4.7-5.7-7.7-7.2-13.6s2-3.3 2.1-5.9c.1-2.5.1-1.6-1.7-2.5s-2.1-1.6-4.2-.4m61.6.3c-1.3.1-.4-.2-1.4.5s-1.2.9-1.9 1.9c-.8 1-.4.2-.6 1.4v2.7c.2 1.3-.3.4.6 1.4.9 1.1 1.5 1.5 2.5 2.2s-.3.2.8.3c1 .1 1.5.2 2.7 0s.5.1 1.4-.6.9-.5 1.6-1.6.6-.6.9-1.9c.2-1.3.2-1.3 0-2.5s-.2-.7-.9-1.6-.4-.8-1.3-1.4c-.9-.7-.4-.6-1.7-.8s-1.5-.2-2.7 0m-61.6-10.7c-.6.5-.3.4-.7 1s-.1.2-.2.7-.2.1 0 .7l.5.9c.4.6-.2.6.9.9 1 .3 1.2.2 2.1 0 .9-.1.2-.3.4-.4s0 .4.3 0 .4-.4.7-1.2.1-.4 0-1.2c-.2-.7-.2-.4-.5-.9s0-.1-.5-.5c-.4-.3-.2-.3-.9-.4s-.2-.2-.9 0c-.7.1-.5 0-1.2.4m62.1-11.1c-1.5.2-1.1.1-2.2.9-1.2.7-1 .7-1.7 1.6s-.4.1-.5 1.4c-.2 1.2-.2 1.5 0 2.7.1 1.3 0 .6.5 1.4s.2.6 1.1 1.4.8.7 1.9 1.1c1.2.4 1.3.2 2 .2s-.2-.2.2-.2c.4-.1.1.5 1.1 0 1.1-.5 1.4-.5 2.5-1.7s.8-.8 1.1-2.2.2-1.3 0-2.5 0-.4-.5-1.3-.6-.9-1.4-1.7-.2-.5-1.4-.8-1.3-.4-2.7-.3m-61.5-1.6c-.7.1 0-.3-.5.2l-.9 1.2c-.4.6-.2 0-.2.7s-.1.4.2 1.2.1.4.7.9.1.3.9.4.5.3 1.4 0 .6-.1 1.2-.6.3-.2.5-1c.1-.8.2-.5 0-1.4s-.2-.6-.7-1.1c-.6-.6-.1-.3-1-.5s-.9-.1-1.6 0m38.1 3c-.4-1.8-3.4 1.4-6.6-.9s-1.7-6.5-3.8-6.6-.2 4.1-3.3 6.4c-3.1 2.2-6.5-.7-7.1 1.1-.7 1.8 3.7 1.2 4.9 4.9s-2.4 6.2-.8 7.4 2.2-3.3 6-3.3 5 4.5 6.6 3.3c1.7-1.1-2.3-3.4-1.1-7.1s5.6-3.4 5.2-5.2m-36.5-15.6c-.9-.4-.5-.1-1.4 0-.8.2-.4.2-.9.5s-.1-.1-.5.5c-.3.5-.3.5-.4 1.1s-.2-.1 0 .5c.1.5 0 .5.4 1.1s0 .3.7.7c.8.4.5.5 1.4.5 1 0 .8-.1 1.4-.5.7-.3.2.1.5-.4s.3-.2.5-1v-1.1c-.1-.7.3-.1-.3-.7s-.4-.8-1.4-1.2m24.7-4.1c-.3.3-.3.1-.5.7v.9c.1.5 0 .1.3.5l.4.4c.4.3.1.2.5.2h.7c.5 0 .3.1.7-.2.4-.2.3.3.5-.4.1-.8.2-.9 0-1.7s0-.4-.7-.7c-.8-.2-.8-.1-1.4 0-.7.1-.2-.1-.5.3m34.6-3.5c-1.5.3-1.2.4-2.2 1.1s-.6.6-1.1 1.4-.3.1-.5 1.4-.2 1.5 0 2.7-.2.4.5 1.4c.8 1 1.1 1.2 2 1.9s-.2.4 1.1.6h3c1.3-.2.3.3 1.4-.6s1.4-1.5 2.1-2.5.2.3.3-.8.3-1.4 0-2.7-.1-.7-.8-1.7-.7-1-1.6-1.6-.2-.4-1.4-.6c-1.3-.1-1.3-.3-2.8 0m68.6-5.7c-2 .6-1.7.7-2.5 2.5s-.8 1.7 0 3.4 1.8.8 2.5 2.1c.8 1.3 2.2-2.6 0 2.1-2.1 4.7.6 8.5-7.2 13.5s-17-1.8-18.5 3.4c-1.6 5.2 10.4 4.3 13.5 13.9s-7.3 15.3-3.4 18.2 6.2-8.4 16.5-8.4c10.2 0 13.4 11.3 17.7 8.4s-6.4-8.5-3.4-18.2 15.1-8.8 13.6-13.9c-1.6-5.1-10.9 2.2-18.6-3s-5.9-8-7.2-14.3 2.6-4 2.9-6.8c.4-2.8.1-1.6-1.6-2.5s-2.2-1.1-4.3-.4m-102.7-.2c-.6.3-.4.3-.7.7s-.1.1-.2.5v.7l.2.5c.3.4 0 .4.7.7s.7.2 1.4 0 .5.1.7-.7c.2-.9.2-.9 0-1.7s-.1-.2-.5-.4c-.3-.3.1-.2-.4-.3s-.5-.2-1.2 0m-26.9 1.1c-.9.5-.7.5-1.2 1.1s-.2 0-.2.7c0 .8-.1.6.2 1.4.4.9.2.5.7 1 .6.5.1.3 1 .4s.4.4 1.4 0 .8-.5 1.4-1.1.1-.1.2-.7v-1.2c-.2-.7 0-.3-.5-.9s-.3-.4-.9-.7 0-.2-.7-.2-.5-.3-1.4.2m26.9-9.3c-.8.3-.4.3-.7.7s-.2.1-.3.5v.7c.1.4 0 .1.3.5l.4.4c.4.3 0 .2.5.3h.9c.5-.1.2 0 .5-.3s.3.1.5-.7c.1-.7.2-.6 0-1.4s0-.4-.7-.7c-.8-.2-.7-.2-1.4 0m103.6-2.6c-.9.2-.2 0-.7.5s-.4 0-.7.9-.2.7 0 1.7.2.6.7 1.1-.2.3.7.5c.9.1.9.2 1.9 0s.4-.1.9-.7.3-.1.5-.9v-1.4c-.2-.8-.2-.5-.5-1s-.1-.2-.5-.4c-.3-.3.4-.2-.4-.3zm-130.4-.7c-.8.1 0-.3-.5.2l-.9 1.2c-.4.6-.2 0-.2.7s.1.6.2 1.1c.2.6-.2 0 .3.5s.1.6 1.1.9.6.4 1.6 0c1.1-.4.9-.6 1.4-1.1.6-.6.2.2.3-.5v-1.4c-.1-.6.2.1-.3-.5s-.1-.7-1.1-1.1c-1.1-.4-1.1-.1-1.9 0m26.5-5.3c-.7.2-.2.2-.5.5l-.2.4v1c.1.5.1.2.2.4.2.3-.2 0 .3.3s.3.4 1.1.4.7-.1 1.2-.4.1.2.2-.5.3-.7 0-1.4.1-.4-.7-.7-.9-.1-1.6 0m34.1 1.2c-1.5.3-1 .4-1.9 1.1s-.6.6-1.1 1.4-.4-.2-.5 1.1c-.2 1.2-.3 1.6 0 3s.1.7.8 1.6.4.8 1.4 1.4c1 .7.7.6 1.9.8s1.1.2 2.2 0c1.1-.1.4.2 1.4-.5s1.1-.7 1.9-1.7.6-.4.8-1.6.2-1.2 0-2.5c-.2-1.2.2-.6-.5-1.6-.8-1.1-1.1-1.2-2-1.9-.9-.8.3-.4-1.1-.6-1.3-.2-1.7-.3-3.3 0m69.9-7.7c-.8.1 0-.2-.4.3s-.7.1-1 1.1-.2.7 0 1.6.2.6.7 1.2c.6.6.1.3.9.5h1.7c.7-.2.2-.3.4-.5s-.1.3.3 0c.3-.3.4.1.7-.9s.1-1.1 0-1.9c-.2-.8-.3-.2-.5-.4s.3 0 0-.3.1-.4-.9-.7-1.1-.1-1.9 0m-130.1-.8c-.8.2-.4.2-.9.5s-.2-.2-.5.5-.4.4-.4 1.4 0 .6.4 1.4.1.2.7.7.6.3 1.2.4 0 .1.4 0 .2.1.7-.2c.6-.3.5-.1 1-.7s.3-.2.4-.9c.2-.8.2-.5 0-1.2-.1-.7 0-.4-.4-.9l-.7-.7c-.4-.4.2-.2-.5-.3zm26.6-1.7-.5.2-.4.5c-.3.3-.2 0-.3.5v.7c.1.4 0 0 .3.4s-.1.5.7.7c.7.3.6.3 1.4 0s.4.1.7-.7.1-.6 0-1.4c-.2-.7-.2-.3-.5-.7s0-.1-.5-.2zm-.2-8.2c-.7.1-.1-.1-.5.3-.3.4-.3.3-.4.9s-.1.3 0 .7c0 .4 0 .1.2.5q.1.3.5.4c.3.3-.1.2.4.3h1c.4-.1.1 0 .4-.3s.3.1.5-.7c.1-.7.2-.6 0-1.4s0-.4-.7-.7-.8-.1-1.4 0m103.7-1.9c-.9.2-.6.1-1.2.7s-.3.1-.4.9-.2.6 0 1.4c.1.8-.1.3.4.9s0 .5 1 .7c.9.3 1 .1 1.8 0s0 .3.5-.2.6-.1.9-1.2.2-.9 0-1.8.1-.3-.5-.7c-.5-.5-.2-.5-1.1-.7-.9-.3-.5-.3-1.4 0m-130.3-.5c-.8.1 0-.3-.4.2s-.6.1-1 1.2c-.3 1-.2.9 0 1.8s.2.5.7 1c.6.4.1.3 1 .4s.4.4 1.4 0 .8-.5 1.3-1.1.2-.1.3-.7v-1.2c-.1-.6.2.1-.3-.5s-.1-.7-1.1-1.1c-1.1-.4-1.1-.1-1.9 0m60.8-1.2c-1.3.2-.4-.2-1.4.6-1 .7-1.2.9-1.9 1.9-.8 1-.4.1-.6 1.4v2.7c.2 1.2-.2.4.6 1.4.7 1 .8 1.2 1.9 1.9s.5.4 1.6.6 1 .2 2.2 0 1-.2 2-.9.7-.4 1.3-1.3.6-.5.9-1.7c.2-1.2.2-1.1 0-2.5s-.2-.9-.9-1.9-.4-.7-1.3-1.4-.4-.5-1.7-.8c-1.3-.2-1.5-.1-2.7 0m-34-5.5-.5.2-.4.5c-.3.3-.2 0-.3.4v.7c.1.5 0 .1.3.5s-.1.5.7.7c.7.3.6.3 1.4 0s.4 0 .7-.7 0-.7 0-1.4c-.1-.6.1-.1-.3-.4s-.3-.4-.9-.5c-.6-.2-.3-.1-.7 0M321.1 77c-.8.2-.3 0-.9.5s-.4 0-.7.9-.1 1.1 0 1.9-.2 0 .2.5.1.6 1.2.9 1.1.1 1.9 0-.1.2.4-.2.6-.2 1-1.2c.3-1 .4-.6 0-1.6-.4-1.1-.6-.9-1.2-1.4-.6-.6.2-.2-.5-.3zm-129.9-.5c-.9.2-.4 0-1 .5s-.4-.1-.7.9-.1 1.1 0 1.9-.2-.1.3.4.1.6 1.1 1c1 .3.7.2 1.6 0s.6-.2 1.2-.7c.6-.6.3-.2.5-1v-1.1c-.1-.7.1-.2-.3-.7-.4-.6-.4-.5-.9-1s.2-.1-.5-.2zm25.8-2c-.3.3-.3.1-.4.7s-.1.4 0 .9c0 .5 0 .1.2.5q.1.3.5.4c.3.3-.1.2.4.3s.5.2 1.2 0 .4.1.7-.7c.2-.9.1-.9 0-1.7-.2-.7-.2-.2-.5-.4s.1-.2-.4-.3h-1.2c-.6.1-.1-.1-.5.3m.8-9.2c-.4.1-.2 0-.5.3l-.5.4-.2.5v.7c.1.4-.1.1.2.5s0 .4.7.7c.8.2.8 0 1.4 0 .7-.1.3 0 .5-.3s.1.2.2-.4.3-.7 0-1.4c-.2-.8-.3-.4-.7-.7-.4-.4 0-.2-.4-.3zm102-.1c-1.2.2.1.2 0 .5-.2.3-.3-.3-.5.5s-.1 1 0 1.8-.1.1.2.5.1.3.7.7l1.2.5h.5c.5-.2.4.1 1.1-.5s.6-.2 1-1.2c.3-.9.2-.6 0-1.6s.7-.8-.7-1.2c-1.5-.4-2.3-.1-3.5 0m-68.5 1.2c-1.6.4-1.1.5-2 1.4s-.6.6-1.1 1.3-.3 0-.5 1.1-.3 1.4 0 2.8 0 .8.8 1.9.9 1 1.9 1.7.3.3 1.4.5 1 .2 2.2 0 .9-.2 1.9-.8.7-.4 1.4-1.4.6-.6.8-1.9.4-1 0-2.5-.3-1.2-1.4-2.5c-1-1.2-.5-1.1-2.1-1.6s-1.8-.4-3.3 0m-61.4-1.2c-1.5.4-.3 0-.5 1s-.2.9 0 1.8-.2.2.5.7.5.5 1.4.7c.9.3.6.1 1.1 0s-.1.3.5-.2.8-.4 1.2-1.4.1-.5 0-1.4c-.2-.9 1-.8-.5-1.2s-2.3-.3-3.7 0"/></svg>