<svg viewBox="0 0 24 24" xmlns="http://www.w3.org/2000/svg">
  <!-- Star on top -->
  <polygon points="12,0.5 12.7,2.5 14.8,2.5 13.1,3.7 13.7,5.7 12,4.5 10.3,5.7 10.9,3.7 9.2,2.5 11.3,2.5" fill="#d4a017"/>
  <polygon points="12,1.2 12.4,2.5 13.8,2.5 12.7,3.3 13.1,4.7 12,3.9 10.9,4.7 11.3,3.3 10.2,2.5 11.6,2.5" fill="#e8c340" opacity=".6"/>

  <!-- Tree — three tiers -->
  <!-- Top tier -->
  <path d="M12 4.5L8.5 9h7z" fill="#2d6a4f"/>
  <path d="M12 5L9.5 8.5h5z" fill="#40916c" opacity=".5"/>
  <!-- Middle tier -->
  <path d="M12 7.5L7 13h10z" fill="#2d6a4f"/>
  <path d="M12 8L8 12.5h8z" fill="#40916c" opacity=".4"/>
  <!-- Bottom tier -->
  <path d="M12 11L5.5 18h13z" fill="#2d6a4f"/>
  <path d="M12 11.5L6.5 17.5h11z" fill="#40916c" opacity=".35"/>

  <!-- Decorations — baubles -->
  <circle cx="10" cy="9.5" r=".55" fill="#cc2222"/>
  <circle cx="14" cy="10" r=".55" fill="#d4a017"/>
  <circle cx="9" cy="13" r=".6" fill="#d4a017"/>
  <circle cx="15" cy="13.5" r=".55" fill="#cc2222"/>
  <circle cx="11.5" cy="11.5" r=".5" fill="#cc2222"/>
  <circle cx="13" cy="15" r=".6" fill="#d4a017"/>
  <circle cx="8" cy="16" r=".55" fill="#cc2222"/>
  <circle cx="16" cy="16.5" r=".55" fill="#d4a017"/>
  <circle cx="11" cy="17" r=".5" fill="#cc2222"/>
  <!-- Bauble highlights -->
  <circle cx="9.8" cy="9.3" r=".15" fill="#ff6666" opacity=".7"/>
  <circle cx="13.8" cy="9.8" r=".15" fill="#e8c340" opacity=".7"/>

  <!-- Trunk -->
  <rect x="10.8" y="18" width="2.4" height="2.5" rx=".3" fill="#6b4510"/>
  <rect x="11.2" y="18" width="1.6" height="2.5" rx=".2" fill="#8b5e1a" opacity=".5"/>

  <!-- Holly — left -->
  <path d="M6 20c-.8-.8-1.5-.5-2.2.2-.3-.8 0-1.8.8-2.2.8.8 1.5.5 2.2-.2.3.8 0 1.8-.8 2.2z" fill="#2d6a4f"/>
  <path d="M5.5 19.5c-.5-.5-1-.3-1.5.1-.2-.5 0-1.2.5-1.5.5.5 1 .3 1.5-.1.2.5 0 1.2-.5 1.5z" fill="#40916c" opacity=".6"/>
  <circle cx="5.8" cy="19.2" r=".45" fill="#cc2222"/>
  <circle cx="5.3" cy="19.7" r=".4" fill="#cc2222"/>
  <circle cx="5.8" cy="19.2" r=".15" fill="#ff6666" opacity=".5"/>

  <!-- Holly — right -->
  <path d="M18 20c.8-.8 1.5-.5 2.2.2.3-.8 0-1.8-.8-2.2-.8.8-1.5.5-2.2-.2-.3.8 0 1.8.8 2.2z" fill="#2d6a4f"/>
  <path d="M18.5 19.5c.5-.5 1-.3 1.5.1.2-.5 0-1.2-.5-1.5-.5.5-1 .3-1.5-.1-.2.5 0 1.2.5 1.5z" fill="#40916c" opacity=".6"/>
  <circle cx="18.2" cy="19.2" r=".45" fill="#cc2222"/>
  <circle cx="18.7" cy="19.7" r=".4" fill="#cc2222"/>
  <circle cx="18.2" cy="19.2" r=".15" fill="#ff6666" opacity=".5"/>

  <!-- Base/pot -->
  <rect x="9" y="20.5" width="6" height="2" rx=".5" fill="#8b1a1a"/>
  <rect x="9" y="20.5" width="6" height=".6" rx=".3" fill="#a02020" opacity=".5"/>
  <rect x="10" y="22.2" width="4" height=".8" rx=".3" fill="#6b1010"/>
</svg>
