<svg viewBox="0 0 24 24" xmlns="http://www.w3.org/2000/svg"><path d="M12 3c-.8 0-1.5 1.2-1.5 2.5S11.2 8 12 8s1.5-1.2 1.5-2.5S12.8 3 12 3z" fill="#ff9800"/><path d="M12 4c-.4 0-.7.8-.7 1.5S11.6 7 12 7s.7-.7.7-1.5S12.4 4 12 4z" fill="#ffeb3b"/><ellipse cx="12" cy="9" rx="3.5" ry="1.5" fill="#d4a017"/><path d="M8.5 9c0 0-1 4 0 6.5S12 19 12 19s2.5-1 3.5-3.5 0-6.5 0-6.5z" fill="#e65100"/><path d="M9.5 9.5c0 0-.5 3.5.3 5.5S12 18 12 18s1.8-.8 2.2-3 .3-5.5.3-5.5z" fill="#ff8f00"/><ellipse cx="12" cy="19.5" rx="5" ry="1.5" fill="#d4a017"/><ellipse cx="12" cy="19.5" rx="3.5" ry="1" fill="#b8880f" opacity=".5"/></svg>
