<svg xmlns="http://www.w3.org/2000/svg" viewBox="0 0 512 512" width="512" height="512"><path id="crescent" fill="#d4a017" stroke="none" d="M130 62 C82 102 56 164 61 228 C66 295 103 354 162 387 C124 354 101 306 99 253 C97 198 117 144 156 102 C192 62 242 38 298 37 C233 21 173 28 130 62 Z"/><path id="star1" fill="#d4a017" stroke="none" d="M350 45l4-12 4 12 12 4-12 4-4 12-4-12-12-4z"/><path id="star2" fill="#d4a017" stroke="none" d="M410 75l3-9 3 9 9 3-9 3-3 9-3-9-9-3z"/><path id="star3" fill="#d4a017" stroke="none" d="M380 30l2.5-7.5 2.5 7.5 7.5 2.5-7.5 2.5-2.5 7.5-2.5-7.5-7.5-2.5z"/><path id="star4" fill="#d4a017" stroke="none" d="M440 40l2-6 2 6 6 2-6 2-2 6-2-6-6-2z"/><path id="star5" fill="#d4a017" stroke="none" d="M345 90l2-6 2 6 6 2-6 2-2 6-2-6-6-2z"/><path id="mihrab_outer" fill="none" stroke="#1F8F8B" stroke-width="14" stroke-linecap="round" stroke-linejoin="round" d="M280 126 L391 211 C415 230 429 260 429 292 L429 429 L208 429 L208 292 C208 278 213 266 222 257 C213 248 208 236 208 222 C208 196 219 172 238 154 L280 126 Z"/><path id="mihrab_middle" fill="none" stroke="#1F8F8B" stroke-width="12" stroke-linecap="round" stroke-linejoin="round" d="M280 160 L373 231 C393 246 404 270 404 297 L404 404 L226 404 L226 299 C226 285 231 274 240 266 C231 258 226 247 226 233 C226 212 235 193 250 178 L280 160 Z"/><path id="mihrab_inner" fill="none" stroke="#1F8F8B" stroke-width="10" stroke-linecap="round" stroke-linejoin="round" d="M280 193 L355 250 C371 262 379 280 379 302 L379 377 L244 377 L244 304 C244 292 248 282 256 275 C248 268 244 258 244 246 C244 229 251 214 263 202 L280 193 Z"/></svg>
